<?xml version="1.0" encoding="UTF-8"?>
<svg version="1.1" xmlns="http://www.w3.org/2000/svg" width="512" height="512">
<path d="M0 0 C0.86012695 0.21495117 1.72025391 0.42990234 2.60644531 0.65136719 C51.16919867 13.209729 97.22815613 43.32348337 128 83 C128.78632813 83.969375 129.57265625 84.93875 130.3828125 85.9375 C157.34848004 119.75024927 173.15510289 161.39617962 179 204 C179.103125 204.733396 179.20625 205.46679199 179.3125 206.22241211 C180.36959702 214.99726123 180.24384073 223.86251564 180.25 232.6875 C180.25067474 233.55615692 180.25134949 234.42481384 180.25204468 235.3197937 C180.23508587 249.08606839 179.61050112 262.44976229 177 276 C176.83902832 276.87188965 176.67805664 277.7437793 176.51220703 278.64208984 C169.54095209 315.42701144 154.29044694 350.61687584 131 380 C130.03513672 381.25296875 130.03513672 381.25296875 129.05078125 382.53125 C123.7279524 389.35483587 117.95065622 395.7263936 112 402 C111.52546387 402.50321777 111.05092773 403.00643555 110.56201172 403.52490234 C103.49856152 410.96653794 96.00759367 417.49557505 87.79882812 423.64550781 C86.02307817 424.98262246 84.26879577 426.34440877 82.515625 427.7109375 C42.30956923 458.61480674 -8.73452971 474.20864118 -59.125 474.25 C-59.86955444 474.25067474 -60.61410889 474.25134949 -61.38122559 474.25204468 C-101.73844285 474.19439151 -140.44956062 464.018209 -176 445 C-177.15628906 444.38640625 -178.31257813 443.7728125 -179.50390625 443.140625 C-194.1642726 435.06825035 -207.53357089 425.13226837 -220 414 C-220.5357666 413.52594727 -221.0715332 413.05189453 -221.62353516 412.56347656 C-243.33457907 393.28051439 -260.51946922 370.70295459 -274 345 C-274.60328125 343.85265381 -274.60328125 343.85265381 -275.21875 342.68212891 C-304.45016751 286.26320941 -308.7252605 218.90555191 -289.93212891 158.48193359 C-276.68778542 118.04925477 -252.1947573 78.09514039 -219 51 C-218.15824219 50.27039063 -217.31648438 49.54078125 -216.44921875 48.7890625 C-193.76510095 29.32799256 -168.10504429 15.07202086 -140 5 C-139.16307617 4.69626465 -138.32615234 4.3925293 -137.46386719 4.07958984 C-93.50183716 -11.61855599 -44.97779599 -11.24042882 0 0 Z " fill="#366BA0" transform="translate(316,23)"/>
<path d="M0 0 C146.52 0 293.04 0 444 0 C440.9518998 7.31544048 438.00495931 14.35294188 434.3125 21.3125 C433.66740479 22.52933472 433.66740479 22.52933472 433.00927734 23.77075195 C428.82228347 31.5342952 424.12366748 38.82724254 419 46 C418.54399414 46.64533691 418.08798828 47.29067383 417.61816406 47.95556641 C410.64721184 57.76130874 403.0304015 66.69551182 394.64013672 75.31298828 C393.13386838 76.86230568 391.6453131 78.42658294 390.16015625 79.99609375 C383.83952129 86.53948237 377.06943747 92.17545393 369.81494141 97.62939453 C368.03368202 98.97456405 366.27223912 100.34269526 364.51171875 101.71484375 C324.30122786 132.61313958 273.26698785 148.20863993 222.875 148.25 C222.13044556 148.25067474 221.38589111 148.25134949 220.61877441 148.25204468 C180.26155715 148.19439151 141.55043938 138.018209 106 119 C104.84371094 118.38640625 103.68742187 117.7728125 102.49609375 117.140625 C87.8357274 109.06825035 74.46642911 99.13226837 62 88 C61.4642334 87.52594727 60.9284668 87.05189453 60.37646484 86.56347656 C35.95157248 64.87017257 18.18739374 39.19518399 3.4375 10.1875 C3.09058105 9.51146729 2.74366211 8.83543457 2.38623047 8.13891602 C0.93499198 5.23160406 0 3.29476109 0 0 Z " fill="#FFFFFF" transform="translate(34,349)"/>
<path d="M0 0 C154.77 0 309.54 0 469 0 C466.7481203 11.2593985 466.7481203 11.2593985 464.87109375 16.84765625 C464.47599609 18.02908203 464.08089844 19.21050781 463.67382812 20.42773438 C463.26583984 21.62720703 462.85785156 22.82667969 462.4375 24.0625 C462.02564453 25.29677734 461.61378906 26.53105469 461.18945312 27.80273438 C458.14063798 36.85936202 458.14063798 36.85936202 457 38 C454.63285268 38.09873755 452.29489293 38.13179216 449.92722225 38.12304783 C449.17474212 38.12420167 448.42226198 38.12535552 447.64697942 38.12654433 C445.09323962 38.12921809 442.53956127 38.12468263 439.98582458 38.12025452 C438.14942522 38.12069006 436.31302591 38.12156466 434.47662693 38.12284368 C429.40517808 38.12509189 424.33375013 38.12106293 419.26230395 38.11606562 C413.80282948 38.11176595 408.3433563 38.1132072 402.88388062 38.1139679 C393.4166123 38.11449344 383.94935086 38.11134348 374.48208427 38.10573006 C360.79383489 38.09761915 347.10558884 38.09500026 333.41733731 38.09374207 C311.21157272 38.0915509 289.00581134 38.08489763 266.80004883 38.07543945 C245.22322611 38.06625975 223.64640436 38.05917382 202.06958008 38.05493164 C201.07249505 38.05473435 201.07249505 38.05473435 200.05526688 38.05453308 C192.7176895 38.05308377 185.38011211 38.05169191 178.04253471 38.05032361 C122.69502061 38.03994898 67.34751048 38.02232892 12 38 C10.92500433 35.23351258 9.86535672 32.46242051 8.8125 29.6875 C8.52052734 28.94048828 8.22855469 28.19347656 7.92773438 27.42382812 C4.52147695 18.37710142 2.50649874 9.52469521 0 0 Z " fill="#CA4638" transform="translate(21,311)"/>
<path d="M0 0 C158.4 0 316.8 0 480 0 C477 24 477 24 474 36 C319.23 36 164.46 36 5 36 C1 16 1 16 0 0 Z " fill="#FEFEFE" transform="translate(16,275)"/>
<path d="M0 0 C146.52 0 293.04 0 444 0 C440.85602389 7.54554266 437.77078416 14.71795631 433.9375 21.875 C433.51662109 22.67679687 433.09574219 23.47859375 432.66210938 24.3046875 C431.46786526 26.55616168 430.27615643 28.7937798 429 31 C428.45458707 32.02086689 427.90917413 33.04173377 427.34723353 34.09353602 C425 37 425 37 421.8935101 37.74519098 C420.65865959 37.74291266 419.42380908 37.74063433 418.15153885 37.73828697 C417.45975538 37.74521004 416.76797192 37.7521331 416.05522531 37.75926596 C413.72518335 37.77521358 411.397604 37.74818635 409.06768799 37.7215271 C407.38543608 37.72414244 405.70318654 37.72939388 404.02095008 37.7370621 C399.38923554 37.75051184 394.7583496 37.7264337 390.12674069 37.69639373 C385.13562584 37.67053816 380.14455957 37.67924727 375.15339661 37.68380737 C366.50293105 37.686957 357.85273655 37.66809553 349.20233917 37.63438034 C336.695288 37.5856654 324.18836819 37.56999651 311.68123242 37.56245239 C291.39044128 37.54931316 271.09979467 37.50936328 250.80908203 37.45263672 C231.09587325 37.3975819 211.3827037 37.35510188 191.66943359 37.32958984 C189.84744913 37.32722533 189.84744913 37.32722533 187.98865691 37.32481305 C181.89522269 37.31698296 175.8017882 37.30940068 169.70835352 37.30194163 C119.13880244 37.23971807 68.56940826 37.13401881 18 37 C16.42742234 34.18745836 14.85799673 31.3731692 13.2890625 28.55859375 C12.85086182 27.7749646 12.41266113 26.99133545 11.96118164 26.18395996 C8.99641953 20.86080214 6.14049984 15.49177329 3.375 10.0625 C3.03428467 9.39891479 2.69356934 8.73532959 2.3425293 8.05163574 C0.90301765 5.16758701 0 3.26922917 0 0 Z " fill="#FEFDFD" transform="translate(34,349)"/>
<path d="M0 0 C133.65 0 267.3 0 405 0 C403.24935688 4.37660781 401.68588365 7.01963962 398.875 10.6875 C398.27558594 11.47133057 398.27558594 11.47133057 397.6640625 12.27099609 C396.44975534 13.85276567 395.22495629 15.42646291 394 17 C393.32195312 17.87527344 392.64390625 18.75054687 391.9453125 19.65234375 C390.69016425 21.24774303 389.41607018 22.82850182 388.1195727 24.39048463 C386.739001 26.09017772 385.40916623 27.83277873 384.14210743 29.61869496 C381.13688662 33.53366757 378.72445126 36.48421576 373.89707673 37.92808592 C370.15784603 38.29155099 366.48515062 38.34024897 362.73561096 38.27656555 C361.29537301 38.28881896 359.85516669 38.30542325 358.41502327 38.32597607 C354.4747278 38.36952195 350.53683436 38.35102705 346.59649646 38.32190573 C342.34061862 38.30129445 338.08517851 38.33831516 333.82940674 38.36778259 C325.49904777 38.41606006 317.16957173 38.41022918 308.83914489 38.3846812 C302.06734104 38.36481549 295.29578826 38.36413896 288.52396965 38.37709618 C287.077228 38.37982776 287.077228 38.37982776 285.60125924 38.38261452 C283.64177729 38.38638415 281.68229541 38.39019199 279.7228136 38.39403763 C261.35570626 38.42771205 242.98909093 38.399351 224.6220445 38.35024985 C208.87069923 38.30966545 193.12018833 38.32444013 177.36889648 38.37915039 C159.06824742 38.44270111 140.76810743 38.4702131 122.46735328 38.4416768 C120.51485097 38.43874302 118.56234858 38.43586218 116.60984612 38.4330349 C115.64923364 38.43163285 114.68862117 38.43023081 113.69889923 38.42878628 C106.93765561 38.42144868 100.17676757 38.43996901 93.41559029 38.46868324 C85.17203253 38.50306693 76.92960445 38.49830647 68.68613786 38.44364712 C64.4817496 38.41676994 60.27929076 38.40732509 56.07494926 38.44584274 C52.22150577 38.48064958 48.37172188 38.46419084 44.51856565 38.40776064 C43.12905659 38.39621857 41.7392415 38.40300053 40.3499567 38.43050281 C34.31677288 38.54097821 29.80867155 38.45420284 24.99191463 34.58144796 C22.4040685 31.91216709 20.18640713 29.00582289 18 26 C17.04314775 24.83127879 16.08303268 23.66520663 15.1171875 22.50390625 C0 2.67247387 0 2.67247387 0 0 Z " fill="#CA4638" transform="translate(53,386)"/>
<path d="M0 0 C79.2 0 158.4 0 240 0 C240 12.21 240 24.42 240 37 C160.8 37 81.6 37 0 37 C0 24.79 0 12.58 0 0 Z " fill="#CA4638" transform="translate(256,238)"/>
<path d="M0 0 C77.22 0 154.44 0 234 0 C238 19 238 19 240 37 C160.8 37 81.6 37 0 37 C0 24.79 0 12.58 0 0 Z " fill="#FEFEFE" transform="translate(256,201)"/>
<path d="M0 0 C73.26 0 146.52 0 222 0 C228.91475973 17.28689931 228.91475973 17.28689931 231.375 26.375 C231.63410156 27.30054688 231.89320313 28.22609375 232.16015625 29.1796875 C234 35.79923115 234 35.79923115 234 37 C156.78 37 79.56 37 0 37 C0 24.79 0 12.58 0 0 Z " fill="#CA4739" transform="translate(256,164)"/>
<path d="M0 0 C26.2952664 -0.38394605 52.58825951 -0.69700818 78.88561821 -0.88080692 C91.09631658 -0.96842132 103.30514837 -1.08783195 115.51464844 -1.2824707 C126.15825336 -1.45206554 136.80050663 -1.56162237 147.44542515 -1.59950441 C153.08129495 -1.6216471 158.71329865 -1.67355394 164.34792709 -1.79741096 C169.65652773 -1.91315186 174.95968764 -1.94834074 180.26943016 -1.92283058 C182.2135005 -1.92749355 184.15775952 -1.96113864 186.10073662 -2.02649307 C198.0789137 -2.40950269 198.0789137 -2.40950269 203 0 C207.35841444 4.13549087 209.83480836 9.5036124 212.14243913 14.96972668 C213.27282485 17.64591219 214.60637601 20.20447088 215.9453125 22.78125 C216.68036892 24.35021525 217.40743306 25.92295923 218.125 27.5 C218.50914062 28.32113281 218.89328125 29.14226562 219.2890625 29.98828125 C222 35.82647879 222 35.82647879 222 37 C148.74 37 75.48 37 0 37 C0 24.79 0 12.58 0 0 Z " fill="#FEFEFE" transform="translate(256,127)"/>
<path d="M0 0 C22.49684083 -0.27117612 44.99235292 -0.49209956 67.49041462 -0.62174606 C77.93732134 -0.68355076 88.3831385 -0.7677665 98.8293457 -0.90527344 C107.9373355 -1.02510753 117.0445361 -1.10235114 126.15329236 -1.12906194 C130.97414876 -1.1446703 135.79274805 -1.18118424 140.6128788 -1.26876068 C145.15674157 -1.35064337 149.69743382 -1.37525854 154.24196434 -1.35729218 C155.90329141 -1.36057508 157.56473199 -1.38420464 159.22541809 -1.4304657 C172.37775297 -1.77865994 172.37775297 -1.77865994 177.40120506 2.63426971 C180.25795081 5.53974639 182.63485485 8.68710347 185 12 C185.99975887 13.22581891 187.00372235 14.44824886 188.015625 15.6640625 C188.75296875 16.64117187 189.4903125 17.61828125 190.25 18.625 C190.65202637 19.15714111 191.05405273 19.68928223 191.46826172 20.23754883 C202 34.25821354 202 34.25821354 202 37 C135.34 37 68.68 37 0 37 C0 24.79 0 12.58 0 0 Z " fill="#CA4638" transform="translate(256,90)"/>
<path d="M0 0 C85.47 0 170.94 0 259 0 C217.18095466 33.45523627 154.70029955 42.36698814 102.83764648 37.17480469 C65.83525852 32.8329415 31.95913046 19.77598915 0 1 C0 0.67 0 0.34 0 0 Z " fill="#CA493B" transform="translate(126,459)"/>
<path d="M0 0 C16.75995119 -0.15832612 33.51925916 -0.28714079 50.27975178 -0.3626852 C58.06283247 -0.39870206 65.84541378 -0.44776063 73.62817383 -0.52807617 C80.41570026 -0.59808753 87.20286487 -0.64306411 93.99074239 -0.65861946 C97.58145072 -0.66770546 101.17112441 -0.68888964 104.7614994 -0.7401104 C108.78066516 -0.79697741 112.79805965 -0.79791406 116.81762695 -0.79467773 C117.99367493 -0.81984467 119.1697229 -0.8450116 120.38140869 -0.87094116 C129.01775273 -0.7960021 134.21685703 1.77173597 141 7 C142.12175865 7.8425073 142.12175865 7.8425073 143.26617908 8.70203495 C145.19652936 10.17432565 147.07040491 11.69842951 148.9375 13.25 C149.94828613 14.08144531 149.94828613 14.08144531 150.97949219 14.9296875 C158.84912325 21.45481463 166.597595 27.99699375 173 36 C115.91 36 58.82 36 0 36 C0 24.12 0 12.24 0 0 Z " fill="#FFFFFF" transform="translate(256,54)"/>
<path d="M0 0 C9.43521241 0 18.28330511 0.06966482 27.5625 1.1875 C28.67165771 1.31914551 29.78081543 1.45079102 30.92358398 1.58642578 C41.81382224 2.965488 52.38551119 5.23645188 63 8 C63.72912598 8.18256348 64.45825195 8.36512695 65.20947266 8.55322266 C87.30915288 14.141351 110.27161277 23.84275424 129 37 C129 37.33 129 37.66 129 38 C86.43 38 43.86 38 0 38 C0 25.46 0 12.92 0 0 Z " fill="#CA483B" transform="translate(256,16)"/>
<path d="M0 0 C0.66 0.33 1.32 0.66 2 1 C2 1.99 2 2.98 2 4 C3.98 4 5.96 4 8 4 C7.01 5.485 7.01 5.485 6 7 C5.34 7 4.68 7 4 7 C4.33 8.98 4.66 10.96 5 13 C4.2575 12.62875 3.515 12.2575 2.75 11.875 C0.05716353 10.70484137 0.05716353 10.70484137 -2.3125 11.875 C-3.1478125 12.431875 -3.1478125 12.431875 -4 13 C-3.9071875 11.6078125 -3.9071875 11.6078125 -3.8125 10.1875 C-3.69105736 7.01604897 -3.69105736 7.01604897 -5.5 5.125 C-5.995 4.75375 -6.49 4.3825 -7 4 C-5.02 4 -3.04 4 -1 4 C-0.67 2.68 -0.34 1.36 0 0 Z " fill="#DEE7EF" transform="translate(133,174)"/>
<path d="M0 0 C0.66 1.32 1.32 2.64 2 4 C3.98 4 5.96 4 8 4 C7.319375 4.7425 6.63875 5.485 5.9375 6.25 C3.71646324 8.75949064 3.71646324 8.75949064 4.25 11.3125 C4.4975 11.869375 4.745 12.42625 5 13 C4.2575 12.62875 3.515 12.2575 2.75 11.875 C0.05716353 10.70484137 0.05716353 10.70484137 -2.3125 11.875 C-3.1478125 12.431875 -3.1478125 12.431875 -4 13 C-3.67 11.02 -3.34 9.04 -3 7 C-4.32 6.34 -5.64 5.68 -7 5 C-7 4.67 -7 4.34 -7 4 C-5.02 4 -3.04 4 -1 4 C-0.67 2.68 -0.34 1.36 0 0 Z " fill="#DFE7F0" transform="translate(133,223)"/>
<path d="M0 0 C2 2 2 2 2 5 C3.98 5 5.96 5 8 5 C7.505 5.37125 7.01 5.7425 6.5 6.125 C4.40244486 8.74694393 4.78256165 10.73842472 5 14 C4.2575 13.62875 3.515 13.2575 2.75 12.875 C0.05716353 11.70484137 0.05716353 11.70484137 -2.3125 12.875 C-3.1478125 13.431875 -3.1478125 13.431875 -4 14 C-3.9071875 12.6078125 -3.9071875 12.6078125 -3.8125 11.1875 C-3.69105736 8.01604897 -3.69105736 8.01604897 -5.5 6.125 C-5.995 5.75375 -6.49 5.3825 -7 5 C-5.02 5 -3.04 5 -1 5 C-0.67 3.35 -0.34 1.7 0 0 Z " fill="#E2EAF1" transform="translate(221,175)"/>
<path d="M0 0 C2 2 2 2 2 5 C3.98 5 5.96 5 8 5 C7.505 5.37125 7.01 5.7425 6.5 6.125 C4.40244486 8.74694393 4.78256165 10.73842472 5 14 C4.071875 13.62875 3.14375 13.2575 2.1875 12.875 C1.135625 12.58625 0.08375 12.2975 -1 12 C-1.99 12.66 -2.98 13.32 -4 14 C-3.9071875 12.6078125 -3.9071875 12.6078125 -3.8125 11.1875 C-3.69105736 8.01604897 -3.69105736 8.01604897 -5.5 6.125 C-5.995 5.75375 -6.49 5.3825 -7 5 C-5.02 5 -3.04 5 -1 5 C-0.67 3.35 -0.34 1.7 0 0 Z " fill="#E5ECF3" transform="translate(45,221)"/>
<path d="M0 0 C2 2 2 2 2 5 C3.98 5 5.96 5 8 5 C7.505 5.37125 7.01 5.7425 6.5 6.125 C4.40244486 8.74694393 4.78256165 10.73842472 5 14 C4.2575 13.62875 3.515 13.2575 2.75 12.875 C0.05716353 11.70484137 0.05716353 11.70484137 -2.3125 12.875 C-3.1478125 13.431875 -3.1478125 13.431875 -4 14 C-3.9071875 12.6078125 -3.9071875 12.6078125 -3.8125 11.1875 C-3.69105736 8.01604897 -3.69105736 8.01604897 -5.5 6.125 C-5.995 5.75375 -6.49 5.3825 -7 5 C-5.02 5 -3.04 5 -1 5 C-0.67 3.35 -0.34 1.7 0 0 Z " fill="#E3EAF2" transform="translate(177,175)"/>
<path d="M0 0 C2 3 2 3 2 5 C3.65 5 5.3 5 7 5 C7 5.66 7 6.32 7 7 C6.01 7.495 6.01 7.495 5 8 C4.34444881 10.52733235 4.34444881 10.52733235 4 13 C3.236875 12.79375 2.47375 12.5875 1.6875 12.375 C-1.21885944 11.66608797 -1.21885944 11.66608797 -4 14 C-3.67 12.02 -3.34 10.04 -3 8 C-4.32 7.34 -5.64 6.68 -7 6 C-7 5.67 -7 5.34 -7 5 C-5.02 5 -3.04 5 -1 5 C-0.67 3.35 -0.34 1.7 0 0 Z " fill="#E1E9F1" transform="translate(134,73)"/>
<path d="M0 0 C0.66 1.32 1.32 2.64 2 4 C3.98 4 5.96 4 8 4 C7.525625 4.391875 7.05125 4.78375 6.5625 5.1875 C4.64820367 7.40808374 4.38733012 9.13375709 4 12 C3.236875 11.79375 2.47375 11.5875 1.6875 11.375 C-1.21885944 10.66608797 -1.21885944 10.66608797 -4 13 C-3.67 11.02 -3.34 9.04 -3 7 C-4.32 6.34 -5.64 5.68 -7 5 C-7 4.67 -7 4.34 -7 4 C-5.02 4 -3.04 4 -1 4 C-0.67 2.68 -0.34 1.36 0 0 Z " fill="#E2EAF1" transform="translate(90,124)"/>
<path d="M0 0 C0.66 0 1.32 0 2 0 C2.33 0.99 2.66 1.98 3 3 C4.65 3.33 6.3 3.66 8 4 C8 4.66 8 5.32 8 6 C6.68 6.33 5.36 6.66 4 7 C4.33 8.65 4.66 10.3 5 12 C3.88625 11.690625 3.88625 11.690625 2.75 11.375 C-0.32330841 10.95591249 -1.42786866 11.38050989 -4 13 C-3.34 11.02 -2.68 9.04 -2 7 C-3.32 6.67 -4.64 6.34 -6 6 C-6 5.34 -6 4.68 -6 4 C-4.35 3.67 -2.7 3.34 -1 3 C-0.67 2.01 -0.34 1.02 0 0 Z " fill="#E2EAF1" transform="translate(221,29)"/>
<path d="M0 0 C2 2 2 2 2 5 C3.65 5 5.3 5 7 5 C6.01 6.485 6.01 6.485 5 8 C4.83300768 11.12521833 4.83300768 11.12521833 5 14 C4.01 13.34 3.02 12.68 2 12 C-0.28397032 12.34605611 -1.93409037 12.96704519 -4 14 C-3.9071875 12.6078125 -3.9071875 12.6078125 -3.8125 11.1875 C-3.69105736 8.01604897 -3.69105736 8.01604897 -5.5 6.125 C-5.995 5.75375 -6.49 5.3825 -7 5 C-5.02 5 -3.04 5 -1 5 C-0.67 3.35 -0.34 1.7 0 0 Z " fill="#ECF1F6" transform="translate(89,222)"/>
<path d="M0 0 C0.66 0 1.32 0 2 0 C2.33 0.99 2.66 1.98 3 3 C4.65 3.33 6.3 3.66 8 4 C7.01 5.485 7.01 5.485 6 7 C5.34 7 4.68 7 4 7 C4.33 8.65 4.66 10.3 5 12 C3.88625 11.690625 3.88625 11.690625 2.75 11.375 C-0.32330841 10.95591249 -1.42786866 11.38050989 -4 13 C-3.773125 12.071875 -3.54625 11.14375 -3.3125 10.1875 C-2.63680017 7.03173152 -2.63680017 7.03173152 -4.4375 5.125 C-4.953125 4.75375 -5.46875 4.3825 -6 4 C-4.35 3.67 -2.7 3.34 -1 3 C-0.67 2.01 -0.34 1.02 0 0 Z " fill="#E8EEF4" transform="translate(221,76)"/>
<path d="M0 0 C2 3 2 3 2 5 C3.65 5 5.3 5 7 5 C6.01 6.485 6.01 6.485 5 8 C4.34 8 3.68 8 3 8 C3.33 9.65 3.66 11.3 4 13 C2.88625 12.690625 2.88625 12.690625 1.75 12.375 C-1.32330841 11.95591249 -2.42786866 12.38050989 -5 14 C-4.773125 13.071875 -4.54625 12.14375 -4.3125 11.1875 C-3.63680017 8.03173152 -3.63680017 8.03173152 -5.4375 6.125 C-5.953125 5.75375 -6.46875 5.3825 -7 5 C-5.02 5 -3.04 5 -1 5 C-0.67 3.35 -0.34 1.7 0 0 Z " fill="#E7EEF4" transform="translate(221,224)"/>
<path d="M0 0 C2 3 2 3 2 5 C3.65 5 5.3 5 7 5 C6.01 6.485 6.01 6.485 5 8 C4.34 8 3.68 8 3 8 C3.33 9.65 3.66 11.3 4 13 C3.236875 12.79375 2.47375 12.5875 1.6875 12.375 C-1.21885944 11.66608797 -1.21885944 11.66608797 -4 14 C-3.9071875 12.6078125 -3.9071875 12.6078125 -3.8125 11.1875 C-3.69105736 8.01604897 -3.69105736 8.01604897 -5.5 6.125 C-5.995 5.75375 -6.49 5.3825 -7 5 C-5.02 5 -3.04 5 -1 5 C-0.67 3.35 -0.34 1.7 0 0 Z " fill="#E8EEF4" transform="translate(177,224)"/>
<path d="M0 0 C0.66 0.33 1.32 0.66 2 1 C2 2.32 2 3.64 2 5 C3.65 5 5.3 5 7 5 C6.01 6.485 6.01 6.485 5 8 C4.83286431 10.62531524 4.83286431 10.62531524 5 13 C3.6078125 12.690625 3.6078125 12.690625 2.1875 12.375 C-1.15173402 11.63307034 -1.15173402 11.63307034 -4 14 C-3.67 11.69 -3.34 9.38 -3 7 C-3.99 6.67 -4.98 6.34 -6 6 C-6 5.67 -6 5.34 -6 5 C-4.35 5 -2.7 5 -1 5 C-0.67 3.35 -0.34 1.7 0 0 Z " fill="#E8EEF4" transform="translate(199,199)"/>
<path d="M0 0 C0.66 0.33 1.32 0.66 2 1 C2 2.32 2 3.64 2 5 C3.98 5 5.96 5 8 5 C7.505 5.391875 7.01 5.78375 6.5 6.1875 C4.54406857 8.55091715 4.75792027 10.01435003 5 13 C3.88625 12.690625 3.88625 12.690625 2.75 12.375 C-0.32330841 11.95591249 -1.42786866 12.38050989 -4 14 C-3.34 12.02 -2.68 10.04 -2 8 C-3.32 7.34 -4.64 6.68 -6 6 C-6 5.67 -6 5.34 -6 5 C-4.35 5 -2.7 5 -1 5 C-0.67 3.35 -0.34 1.7 0 0 Z " fill="#EBF0F5" transform="translate(89,173)"/>
<path d="M0 0 C0.66 0.33 1.32 0.66 2 1 C2 2.32 2 3.64 2 5 C3.65 5 5.3 5 7 5 C6.690625 5.763125 6.38125 6.52625 6.0625 7.3125 C5.32106407 9.18789677 4.63771783 11.08684652 4 13 C3.236875 12.814375 2.47375 12.62875 1.6875 12.4375 C-1.08967375 11.77180827 -1.08967375 11.77180827 -4 13 C-3.67 11.02 -3.34 9.04 -3 7 C-3.99 6.67 -4.98 6.34 -6 6 C-6 5.67 -6 5.34 -6 5 C-4.35 5 -2.7 5 -1 5 C-0.67 3.35 -0.34 1.7 0 0 Z " fill="#E7EDF3" transform="translate(155,247)"/>
<path d="M0 0 C2 2 2 2 2 5 C3.65 5 5.3 5 7 5 C6.01 6.485 6.01 6.485 5 8 C4.83286431 10.62531524 4.83286431 10.62531524 5 13 C3.6078125 12.690625 3.6078125 12.690625 2.1875 12.375 C-1.15173402 11.63307034 -1.15173402 11.63307034 -4 14 C-3.67 11.69 -3.34 9.38 -3 7 C-3.99 6.67 -4.98 6.34 -6 6 C-6 5.67 -6 5.34 -6 5 C-4.35 5 -2.7 5 -1 5 C-0.67 3.35 -0.34 1.7 0 0 Z " fill="#EAF0F5" transform="translate(243,199)"/>
<path d="M0 0 C0.66 0.33 1.32 0.66 2 1 C2 2.32 2 3.64 2 5 C3.65 5 5.3 5 7 5 C6.690625 5.763125 6.38125 6.52625 6.0625 7.3125 C5.32106407 9.18789677 4.63771783 11.08684652 4 13 C3.236875 12.79375 2.47375 12.5875 1.6875 12.375 C-1.21885944 11.66608797 -1.21885944 11.66608797 -4 14 C-3.67 11.69 -3.34 9.38 -3 7 C-3.99 6.67 -4.98 6.34 -6 6 C-6 5.67 -6 5.34 -6 5 C-4.35 5 -2.7 5 -1 5 C-0.67 3.35 -0.34 1.7 0 0 Z " fill="#E9EFF5" transform="translate(155,199)"/>
<path d="M0 0 C2 3 2 3 2 5 C3.65 5 5.3 5 7 5 C6.505 5.391875 6.01 5.78375 5.5 6.1875 C3.54406857 8.55091715 3.75792027 10.01435003 4 13 C3.236875 12.814375 2.47375 12.62875 1.6875 12.4375 C-1.08967375 11.77180827 -1.08967375 11.77180827 -4 13 C-3.938125 12.236875 -3.87625 11.47375 -3.8125 10.6875 C-3.74101915 7.95474688 -3.74101915 7.95474688 -5.5 6.1875 C-5.995 5.795625 -6.49 5.40375 -7 5 C-5.824375 4.87625 -5.824375 4.87625 -4.625 4.75 C-1.85250896 4.27193661 -1.85250896 4.27193661 -0.6875 1.9375 C-0.460625 1.298125 -0.23375 0.65875 0 0 Z " fill="#EDF1F6" transform="translate(134,124)"/>
<path d="M0 0 C0.66 0.33 1.32 0.66 2 1 C2 2.32 2 3.64 2 5 C3.65 5 5.3 5 7 5 C6.690625 5.763125 6.38125 6.52625 6.0625 7.3125 C5.32106407 9.18789677 4.63771783 11.08684652 4 13 C3.236875 12.814375 2.47375 12.62875 1.6875 12.4375 C-1.08967375 11.77180827 -1.08967375 11.77180827 -4 13 C-3.67 11.02 -3.34 9.04 -3 7 C-3.99 6.67 -4.98 6.34 -6 6 C-6 5.67 -6 5.34 -6 5 C-4.35 5 -2.7 5 -1 5 C-0.67 3.35 -0.34 1.7 0 0 Z " fill="#E8EEF4" transform="translate(155,100)"/>
<path d="M0 0 C0.66 0 1.32 0 2 0 C2.33 1.32 2.66 2.64 3 4 C4.65 4 6.3 4 8 4 C7.01 5.485 7.01 5.485 6 7 C5.34 7 4.68 7 4 7 C4.33 8.65 4.66 10.3 5 12 C4.236875 11.814375 3.47375 11.62875 2.6875 11.4375 C-0.08967375 10.77180827 -0.08967375 10.77180827 -3 12 C-2.938125 11.236875 -2.87625 10.47375 -2.8125 9.6875 C-2.74101915 6.95474688 -2.74101915 6.95474688 -4.5 5.1875 C-4.995 4.795625 -5.49 4.40375 -6 4 C-4.35 3.67 -2.7 3.34 -1 3 C-0.67 2.01 -0.34 1.02 0 0 Z " fill="#EAEFF5" transform="translate(177,76)"/>
<path d="M0 0 C0.66 0.33 1.32 0.66 2 1 C2 2.32 2 3.64 2 5 C3.65 5 5.3 5 7 5 C6.690625 5.763125 6.38125 6.52625 6.0625 7.3125 C5.32106407 9.18789677 4.63771783 11.08684652 4 13 C3.236875 12.814375 2.47375 12.62875 1.6875 12.4375 C-1.08967375 11.77180827 -1.08967375 11.77180827 -4 13 C-3.67 11.02 -3.34 9.04 -3 7 C-3.99 6.67 -4.98 6.34 -6 6 C-6 5.67 -6 5.34 -6 5 C-4.35 5 -2.7 5 -1 5 C-0.67 3.35 -0.34 1.7 0 0 Z " fill="#E8EEF4" transform="translate(155,51)"/>
<path d="M0 0 C2 2 2 2 2 5 C3.65 5 5.3 5 7 5 C6.01 6.485 6.01 6.485 5 8 C4.83286431 10.62531524 4.83286431 10.62531524 5 13 C3.6078125 12.7215625 3.6078125 12.7215625 2.1875 12.4375 C-1.01343771 11.75876119 -1.01343771 11.75876119 -4 13 C-3.67 11.02 -3.34 9.04 -3 7 C-3.99 6.67 -4.98 6.34 -6 6 C-6 5.67 -6 5.34 -6 5 C-4.35 5 -2.7 5 -1 5 C-0.67 3.35 -0.34 1.7 0 0 Z " fill="#ECF1F6" transform="translate(31,199)"/>
<path d="M0 0 C0.66 0.33 1.32 0.66 2 1 C2.33 1.99 2.66 2.98 3 4 C5.00016466 5.20882096 5.00016466 5.20882096 7 6 C6.690625 6.598125 6.38125 7.19625 6.0625 7.8125 C4.89790296 10.08956772 4.89790296 10.08956772 4 13 C3.236875 12.79375 2.47375 12.5875 1.6875 12.375 C-1.21885944 11.66608797 -1.21885944 11.66608797 -4 14 C-3.773125 13.071875 -3.54625 12.14375 -3.3125 11.1875 C-2.63680017 8.03173152 -2.63680017 8.03173152 -4.4375 6.125 C-4.953125 5.75375 -5.46875 5.3825 -6 5 C-4.35 5 -2.7 5 -1 5 C-0.67 3.35 -0.34 1.7 0 0 Z " fill="#EBF0F5" transform="translate(67,199)"/>
<path d="M0 0 C0.66 0.33 1.32 0.66 2 1 C2 2.32 2 3.64 2 5 C3.65 5 5.3 5 7 5 C6.690625 5.763125 6.38125 6.52625 6.0625 7.3125 C5.32106407 9.18789677 4.63771783 11.08684652 4 13 C3.236875 12.814375 2.47375 12.62875 1.6875 12.4375 C-1.08967375 11.77180827 -1.08967375 11.77180827 -4 13 C-3.95875 12.05125 -3.9175 11.1025 -3.875 10.125 C-3.65026182 6.89755144 -3.65026182 6.89755144 -6 5 C-4.35 5 -2.7 5 -1 5 C-0.67 3.35 -0.34 1.7 0 0 Z " fill="#E9EEF4" transform="translate(155,149)"/>
<path d="M0 0 C0.66 0.33 1.32 0.66 2 1 C2 2.32 2 3.64 2 5 C3.65 5 5.3 5 7 5 C6.67 5.66 6.34 6.32 6 7 C5.34 7 4.68 7 4 7 C4.33 8.98 4.66 10.96 5 13 C4.2575 12.62875 3.515 12.2575 2.75 11.875 C0.05716353 10.70484137 0.05716353 10.70484137 -2.3125 11.875 C-3.1478125 12.431875 -3.1478125 12.431875 -4 13 C-3.67 11.02 -3.34 9.04 -3 7 C-3.99 6.67 -4.98 6.34 -6 6 C-6 5.67 -6 5.34 -6 5 C-4.35 5 -2.7 5 -1 5 C-0.67 3.35 -0.34 1.7 0 0 Z " fill="#EAEFF5" transform="translate(243,247)"/>
<path d="M0 0 C0.66 0.33 1.32 0.66 2 1 C2 1.99 2 2.98 2 4 C3.98 4 5.96 4 8 4 C7.505 4.391875 7.01 4.78375 6.5 5.1875 C4.54406857 7.55091715 4.75792027 9.01435003 5 12 C4.236875 11.814375 3.47375 11.62875 2.6875 11.4375 C-0.08967375 10.77180827 -0.08967375 10.77180827 -3 12 C-2.67 10.35 -2.34 8.7 -2 7 C-3.32 6.34 -4.64 5.68 -6 5 C-6 4.67 -6 4.34 -6 4 C-4.35 4 -2.7 4 -1 4 C-0.67 2.68 -0.34 1.36 0 0 Z " fill="#ECF1F6" transform="translate(45,173)"/>
<path d="M0 0 C0.66 0.33 1.32 0.66 2 1 C2 2.32 2 3.64 2 5 C3.65 5 5.3 5 7 5 C6.67 5.66 6.34 6.32 6 7 C5.34 7 4.68 7 4 7 C4.33 8.98 4.66 10.96 5 13 C3.6078125 12.7215625 3.6078125 12.7215625 2.1875 12.4375 C-1.01343771 11.75876119 -1.01343771 11.75876119 -4 13 C-3.67 11.02 -3.34 9.04 -3 7 C-3.99 6.67 -4.98 6.34 -6 6 C-6 5.67 -6 5.34 -6 5 C-4.35 5 -2.7 5 -1 5 C-0.67 3.35 -0.34 1.7 0 0 Z " fill="#EAF0F5" transform="translate(199,149)"/>
<path d="M0 0 C2 2 2 2 2 5 C3.65 5 5.3 5 7 5 C6.67 5.66 6.34 6.32 6 7 C5.34 7 4.68 7 4 7 C4.33 8.98 4.66 10.96 5 13 C3.6078125 12.7215625 3.6078125 12.7215625 2.1875 12.4375 C-1.01343771 11.75876119 -1.01343771 11.75876119 -4 13 C-3.67 11.02 -3.34 9.04 -3 7 C-3.99 6.67 -4.98 6.34 -6 6 C-6 5.67 -6 5.34 -6 5 C-4.35 5 -2.7 5 -1 5 C-0.67 3.35 -0.34 1.7 0 0 Z " fill="#EBF0F5" transform="translate(243,100)"/>
<path d="M0 0 C0.66 0.33 1.32 0.66 2 1 C2 2.32 2 3.64 2 5 C3.65 5 5.3 5 7 5 C6.67 5.66 6.34 6.32 6 7 C5.34 7 4.68 7 4 7 C4.33 8.98 4.66 10.96 5 13 C3.6078125 12.7215625 3.6078125 12.7215625 2.1875 12.4375 C-1.01343771 11.75876119 -1.01343771 11.75876119 -4 13 C-3.67 11.02 -3.34 9.04 -3 7 C-3.99 6.67 -4.98 6.34 -6 6 C-6 5.67 -6 5.34 -6 5 C-4.35 5 -2.7 5 -1 5 C-0.67 3.35 -0.34 1.7 0 0 Z " fill="#EAF0F5" transform="translate(199,100)"/>
<path d="M0 0 C0.66 0.33 1.32 0.66 2 1 C2 2.32 2 3.64 2 5 C3.65 5 5.3 5 7 5 C6.67 5.66 6.34 6.32 6 7 C5.34 7 4.68 7 4 7 C4.33 8.98 4.66 10.96 5 13 C3.6078125 12.7215625 3.6078125 12.7215625 2.1875 12.4375 C-1.01343771 11.75876119 -1.01343771 11.75876119 -4 13 C-3.67 11.02 -3.34 9.04 -3 7 C-3.99 6.67 -4.98 6.34 -6 6 C-6 5.67 -6 5.34 -6 5 C-4.35 5 -2.7 5 -1 5 C-0.67 3.35 -0.34 1.7 0 0 Z " fill="#EAF0F5" transform="translate(199,51)"/>
<path d="M0 0 C0.66 0.33 1.32 0.66 2 1 C2 2.32 2 3.64 2 5 C3.65 5 5.3 5 7 5 C6.67 5.66 6.34 6.32 6 7 C5.34 7 4.68 7 4 7 C4.33 8.98 4.66 10.96 5 13 C4.2575 12.62875 3.515 12.2575 2.75 11.875 C0.05716353 10.70484137 0.05716353 10.70484137 -2.3125 11.875 C-3.1478125 12.431875 -3.1478125 12.431875 -4 13 C-3.67 11.02 -3.34 9.04 -3 7 C-3.99 6.67 -4.98 6.34 -6 6 C-6 5.67 -6 5.34 -6 5 C-4.35 5 -2.7 5 -1 5 C-0.67 3.35 -0.34 1.7 0 0 Z " fill="#EBF0F5" transform="translate(199,247)"/>
<path d="M0 0 C2 2 2 2 2 5 C3.65 5 5.3 5 7 5 C6.67 5.66 6.34 6.32 6 7 C5.34 7 4.68 7 4 7 C4.33 8.98 4.66 10.96 5 13 C4.2575 12.62875 3.515 12.2575 2.75 11.875 C0.05716353 10.70484137 0.05716353 10.70484137 -2.3125 11.875 C-3.1478125 12.431875 -3.1478125 12.431875 -4 13 C-3.67 11.02 -3.34 9.04 -3 7 C-3.99 6.67 -4.98 6.34 -6 6 C-6 5.67 -6 5.34 -6 5 C-4.35 5 -2.7 5 -1 5 C-0.67 3.35 -0.34 1.7 0 0 Z " fill="#ECF1F6" transform="translate(27,247)"/>
<path d="M0 0 C2 2 2 2 2 5 C3.65 5 5.3 5 7 5 C6.67 5.66 6.34 6.32 6 7 C5.34 7 4.68 7 4 7 C4.33 8.98 4.66 10.96 5 13 C4.2575 12.62875 3.515 12.2575 2.75 11.875 C0.05716353 10.70484137 0.05716353 10.70484137 -2.3125 11.875 C-3.1478125 12.431875 -3.1478125 12.431875 -4 13 C-3.67 11.02 -3.34 9.04 -3 7 C-3.99 6.67 -4.98 6.34 -6 6 C-6 5.67 -6 5.34 -6 5 C-4.35 5 -2.7 5 -1 5 C-0.67 3.35 -0.34 1.7 0 0 Z " fill="#ECF1F6" transform="translate(243,149)"/>
<path d="M0 0 C0.66 0 1.32 0 2 0 C2.33 1.65 2.66 3.3 3 5 C4.65 5 6.3 5 8 5 C7.2884375 5.86625 7.2884375 5.86625 6.5625 6.75 C5.0515133 8.92582084 4.45963849 10.42602448 4 13 C3.401875 12.814375 2.80375 12.62875 2.1875 12.4375 C-0.16408762 11.77906313 -0.16408762 11.77906313 -3 13 C-2.95875 12.236875 -2.9175 11.47375 -2.875 10.6875 C-2.77919176 7.77281584 -2.77919176 7.77281584 -5 5 C-3.68 4.67 -2.36 4.34 -1 4 C-0.67 2.68 -0.34 1.36 0 0 Z " fill="#ECF1F6" transform="translate(177,126)"/>
<path d="M0 0 C2 2 2 2 2 5 C3.65 5 5.3 5 7 5 C6.67 5.66 6.34 6.32 6 7 C5.34 7 4.68 7 4 7 C4.33 8.98 4.66 10.96 5 13 C4.2575 12.62875 3.515 12.2575 2.75 11.875 C0.05716353 10.70484137 0.05716353 10.70484137 -2.3125 11.875 C-3.1478125 12.431875 -3.1478125 12.431875 -4 13 C-3.67 11.02 -3.34 9.04 -3 7 C-3.99 6.67 -4.98 6.34 -6 6 C-6 5.67 -6 5.34 -6 5 C-4.35 5 -2.7 5 -1 5 C-0.67 3.35 -0.34 1.7 0 0 Z " fill="#ECF1F6" transform="translate(243,51)"/>
<path d="M0 0 C0.66 0 1.32 0 2 0 C2.33 1.65 2.66 3.3 3 5 C4.65 5 6.3 5 8 5 C7.2884375 5.86625 7.2884375 5.86625 6.5625 6.75 C5.0515133 8.92582084 4.45963849 10.42602448 4 13 C3.401875 12.814375 2.80375 12.62875 2.1875 12.4375 C-0.16408762 11.77906313 -0.16408762 11.77906313 -3 13 C-2.95875 12.236875 -2.9175 11.47375 -2.875 10.6875 C-2.77919176 7.77281584 -2.77919176 7.77281584 -5 5 C-3.68 4.67 -2.36 4.34 -1 4 C-0.67 2.68 -0.34 1.36 0 0 Z " fill="#ECF1F6" transform="translate(177,33)"/>
<path d="M0 0 C0.66 0.33 1.32 0.66 2 1 C2 2.32 2 3.64 2 5 C3.65 5 5.3 5 7 5 C6.690625 5.763125 6.38125 6.52625 6.0625 7.3125 C5.32106407 9.18789677 4.63771783 11.08684652 4 13 C3.236875 12.835 2.47375 12.67 1.6875 12.5 C-1.03596236 11.90854604 -1.03596236 11.90854604 -4 12 C-3.773125 11.401875 -3.54625 10.80375 -3.3125 10.1875 C-3.209375 9.465625 -3.10625 8.74375 -3 8 C-4.35444301 6.22809091 -4.35444301 6.22809091 -6 5 C-4.35 5 -2.7 5 -1 5 C-0.67 3.35 -0.34 1.7 0 0 Z " fill="#EDF1F6" transform="translate(111,149)"/>
<path d="M0 0 C0.66 0.33 1.32 0.66 2 1 C2.33 1.99 2.66 2.98 3 4 C5.00016466 5.20882096 5.00016466 5.20882096 7 6 C6.690625 6.598125 6.38125 7.19625 6.0625 7.8125 C4.89790296 10.08956772 4.89790296 10.08956772 4 13 C3.236875 12.835 2.47375 12.67 1.6875 12.5 C-1.03596236 11.90854604 -1.03596236 11.90854604 -4 12 C-3.773125 11.401875 -3.54625 10.80375 -3.3125 10.1875 C-3.209375 9.465625 -3.10625 8.74375 -3 8 C-4.35444301 6.22809091 -4.35444301 6.22809091 -6 5 C-4.35 5 -2.7 5 -1 5 C-0.67 3.35 -0.34 1.7 0 0 Z " fill="#EEF2F7" transform="translate(67,149)"/>
<path d="M0 0 C0.66 0.33 1.32 0.66 2 1 C2 2.32 2 3.64 2 5 C3.65 5 5.3 5 7 5 C6.690625 5.763125 6.38125 6.52625 6.0625 7.3125 C5.32106407 9.18789677 4.63771783 11.08684652 4 13 C3.236875 12.835 2.47375 12.67 1.6875 12.5 C-1.03596236 11.90854604 -1.03596236 11.90854604 -4 12 C-3.773125 11.401875 -3.54625 10.80375 -3.3125 10.1875 C-3.209375 9.465625 -3.10625 8.74375 -3 8 C-4.35444301 6.22809091 -4.35444301 6.22809091 -6 5 C-4.35 5 -2.7 5 -1 5 C-0.67 3.35 -0.34 1.7 0 0 Z " fill="#EDF1F6" transform="translate(111,100)"/>
<path d="M0 0 C0.66 0.33 1.32 0.66 2 1 C2 2.32 2 3.64 2 5 C3.65 5 5.3 5 7 5 C6.690625 5.763125 6.38125 6.52625 6.0625 7.3125 C5.32106407 9.18789677 4.63771783 11.08684652 4 13 C3.236875 12.835 2.47375 12.67 1.6875 12.5 C-1.03596236 11.90854604 -1.03596236 11.90854604 -4 12 C-3.79375 11.401875 -3.5875 10.80375 -3.375 10.1875 C-2.69328085 7.71549154 -2.69328085 7.71549154 -5 5 C-3.68 5 -2.36 5 -1 5 C-0.67 3.35 -0.34 1.7 0 0 Z " fill="#EDF2F6" transform="translate(111,247)"/>
<path d="M0 0 C0.66 0.33 1.32 0.66 2 1 C2.33 1.99 2.66 2.98 3 4 C5.00016466 5.20882096 5.00016466 5.20882096 7 6 C6.690625 6.598125 6.38125 7.19625 6.0625 7.8125 C4.89790296 10.08956772 4.89790296 10.08956772 4 13 C3.236875 12.835 2.47375 12.67 1.6875 12.5 C-1.03596236 11.90854604 -1.03596236 11.90854604 -4 12 C-3.79375 11.401875 -3.5875 10.80375 -3.375 10.1875 C-2.69328085 7.71549154 -2.69328085 7.71549154 -5 5 C-3.68 5 -2.36 5 -1 5 C-0.67 3.35 -0.34 1.7 0 0 Z " fill="#EEF3F7" transform="translate(67,247)"/>
<path d="M0 0 C0.66 0.33 1.32 0.66 2 1 C2 2.32 2 3.64 2 5 C3.65 5 5.3 5 7 5 C6.690625 5.763125 6.38125 6.52625 6.0625 7.3125 C5.32106407 9.18789677 4.63771783 11.08684652 4 13 C3.21625 12.814375 2.4325 12.62875 1.625 12.4375 C-0.97089775 11.74037734 -0.97089775 11.74037734 -3 13 C-2.938125 12.236875 -2.87625 11.47375 -2.8125 10.6875 C-2.74101915 7.95474688 -2.74101915 7.95474688 -4.5 6.1875 C-4.995 5.795625 -5.49 5.40375 -6 5 C-4.35 5 -2.7 5 -1 5 C-0.67 3.35 -0.34 1.7 0 0 Z " fill="#EFF4F7" transform="translate(111,199)"/>
<path d="M0 0 C0.66 0 1.32 0 2 0 C2 1.65 2 3.3 2 5 C3.98 5 5.96 5 8 5 C7.505 5.391875 7.01 5.78375 6.5 6.1875 C4.54406857 8.55091715 4.75792027 10.01435003 5 13 C4.05125 12.814375 3.1025 12.62875 2.125 12.4375 C-0.89868793 11.71313368 -0.89868793 11.71313368 -3 13 C-2.95875 12.236875 -2.9175 11.47375 -2.875 10.6875 C-2.77919176 7.77281584 -2.77919176 7.77281584 -5 5 C-3.35 5 -1.7 5 0 5 C0 3.35 0 1.7 0 0 Z " fill="#F0F4F7" transform="translate(221,126)"/>
</svg>
